# xmcd
#
# Track frame offsets:
#	150
#	19425
#	34665
#	65450
#
# Disc length: 1801 seconds
#
# Revision: 0
# Processed by: cddbd v1.5.2PL0 Copyright (c) Steve Scherf et al.
# Submitted via: audiograbber 1.83.01
#
DISCID=2f070704
DTITLE=Aaliyah - I Don't Wanna - Come Back In One Piece [CDS)
DYEAR=2000
DGENRE=R&B
TTITLE0=I Don't Wanna
TTITLE1=Come Back In One Piece (No Rap Edit)
TTITLE2=Come Back In One Piece (ft DMX)
TTITLE3=Data Track
EXTD=
EXTT0=
EXTT1=
EXTT2=
EXTT3=
PLAYORDER=
